<?xml version="1.0" encoding="UTF-8" standalone="no"?>
<svg
   xmlns:dc="http://purl.org/dc/elements/1.1/"
   xmlns:cc="http://creativecommons.org/ns#"
   xmlns:rdf="http://www.w3.org/1999/02/22-rdf-syntax-ns#"
   xmlns:svg="http://www.w3.org/2000/svg"
   xmlns="http://www.w3.org/2000/svg"
   viewBox="0 0 85.333336 85.333336"
   height="85.333336"
   width="85.333336"
   xml:space="preserve"
   id="svg2"
   version="1.1"><metadata
     id="metadata8"><rdf:RDF><cc:Work
         rdf:about=""><dc:format>image/svg+xml</dc:format><dc:type
           rdf:resource="http://purl.org/dc/dcmitype/StillImage" /></cc:Work></rdf:RDF></metadata><defs
     id="defs6" /><g
     transform="matrix(1.3333333,0,0,-1.3333333,0,85.333333)"
     id="g10"><g
       transform="scale(0.1)"
       id="g12"><path
         id="path14"
         style="fill:#f5bb3d;fill-opacity:1;fill-rule:nonzero;stroke:none"
         d="M 640,320.012 C 640,143.27 496.738,0 320,0 143.262,0 0,143.27 0,320.012 c 0,176.734 143.262,320 320,320 176.738,0 320,-143.266 320,-320" /><path
         id="path16"
         style="fill:#589da8;fill-opacity:1;fill-rule:nonzero;stroke:none"
         d="m 509.395,369.121 c -0.086,71.399 -32.571,96.703 -105.938,99.234 -60.703,2.536 -113.894,-25.898 -148.031,-60.816 -43.785,-44.785 -37.684,-111.785 -80.684,-149.734 -20.238,-15.168 -83.7889,-34.145 -73.719,-52.754 2.317,-4.27 63.188,-12.461 78.372,-2.324 1.546,-18.618 27.16,-53.539 43.449,-55.864 24.871,-3.55 -1.555,72.492 -1.555,87.668 -5.062,75.879 52.363,68.25 115.598,78.364 50.586,7.585 89.019,25.871 139.605,20.82 17.719,0 43.567,-2.328 59.785,-0.652 22.5,2.328 10.864,33.359 -24.363,36.058" /><path
         id="path18"
         style="fill:#589da8;fill-opacity:1;fill-rule:nonzero;stroke:none"
         d="m 249.586,461.113 c -13.555,-5.05 -24.57,-13.886 -32.34,-24.847 23.242,-4.262 43.734,-20.211 52.578,-43.965 8.336,-22.36 4.395,-46.281 -8.441,-64.387 11.894,-2.187 24.5,-1.359 36.644,3.172 35.918,13.379 54.161,53.34 40.789,89.242 -13.367,35.899 -53.332,54.164 -89.23,40.785" /><path
         id="path20"
         style="fill:#f5f5e6;fill-opacity:1;fill-rule:nonzero;stroke:none"
         d="m 252.566,297.969 c 21.692,9.219 52.243,9.797 84.321,14.926 50.586,7.585 89.019,25.871 139.605,20.82 17.719,0 43.567,-2.328 59.785,-0.652 8.536,0.882 12.129,5.886 11.418,11.91 -90.898,15.332 -228.757,39.136 -295.129,-47.004" /><path
         id="path22"
         style="fill:#589da8;fill-opacity:1;fill-rule:nonzero;stroke:none"
         d="m 355.059,416.133 c -10.957,44.801 64.707,-7.797 64.707,-35.836 0,-28.039 -41.473,-62.719 -92.582,-62.719 0,0 38.812,53.762 27.875,98.555" /><path
         id="path24"
         style="fill:#4f6366;fill-opacity:1;fill-rule:nonzero;stroke:none"
         d="m 431.633,392.613 c 0,7.211 5.84,13.051 13.055,13.051 7.207,0 13.054,-5.84 13.054,-13.051 0,-7.203 -5.847,-13.05 -13.054,-13.05 -7.215,0 -13.055,5.847 -13.055,13.05" /></g></g></svg>